<?xml version="1.0" standalone="no"?>
<!DOCTYPE svg PUBLIC "-//W3C//DTD SVG 20010904//EN"
 "http://www.w3.org/TR/2001/REC-SVG-20010904/DTD/svg10.dtd">
<svg version="1.0" xmlns="http://www.w3.org/2000/svg"
 width="512.000000pt" height="512.000000pt" viewBox="0 0 512.000000 512.000000"
 preserveAspectRatio="xMidYMid meet">

<g transform="translate(0.000000,512.000000) scale(0.100000,-0.100000)"
fill="#000000" stroke="none">
<path d="M2356 5109 c-741 -78 -1381 -596 -1614 -1304 -34 -103 -75 -279 -84
-365 l-3 -25 -328 -3 -328 -2 6 -33 c3 -17 97 -675 209 -1462 180 -1265 206
-1438 231 -1500 75 -187 208 -314 400 -382 l80 -28 1600 -3 c1436 -2 1608 -1
1680 13 236 48 430 231 490 462 8 32 105 692 215 1468 110 775 203 1422 206
1437 l6 28 -328 2 -327 3 -17 100 c-106 622 -497 1144 -1060 1414 -324 155
-681 217 -1034 180z m509 -448 c284 -63 518 -187 723 -385 211 -203 346 -435
417 -715 14 -53 25 -108 25 -123 l0 -28 -1470 0 -1470 0 0 25 c0 37 36 181 66
265 113 318 347 604 638 779 154 93 354 166 541 197 118 20 413 11 530 -15z
m-330 -2121 l450 -450 450 450 450 450 296 -2 296 -3 -743 -750 -743 -750
-753 753 -753 752 300 0 300 0 450 -450z"/>
</g>
</svg>
