<?xml version="1.0" standalone="no"?>
<!DOCTYPE svg PUBLIC "-//W3C//DTD SVG 20010904//EN"
 "http://www.w3.org/TR/2001/REC-SVG-20010904/DTD/svg10.dtd">
<svg version="1.0" xmlns="http://www.w3.org/2000/svg"
 width="512.000000pt" height="512.000000pt" viewBox="0 0 512.000000 512.000000"
 preserveAspectRatio="xMidYMid meet">

<g transform="translate(0.000000,512.000000) scale(0.100000,-0.100000)"
fill="#000000" stroke="none">
<path d="M941 4899 c-432 -51 -790 -366 -909 -797 l-27 -97 0 -1110 0 -1110
23 -80 c46 -160 135 -304 258 -418 70 -65 204 -144 289 -170 l70 -21 0 -131
c0 -152 15 -219 74 -340 121 -245 355 -398 632 -412 226 -12 428 70 581 236
80 87 122 158 161 268 26 76 31 106 35 220 l5 133 428 0 429 0 0 -101 c0 -129
21 -222 75 -334 97 -200 260 -335 480 -396 108 -30 267 -30 378 0 117 31 226
92 318 178 166 157 245 349 237 577 l-3 99 65 22 c268 91 464 300 552 588 22
70 22 86 26 712 3 559 1 653 -13 739 -71 424 -371 752 -793 868 -68 19 -114
22 -391 27 l-314 6 -22 78 c-26 90 -88 223 -142 305 -21 31 -72 92 -113 136
-146 153 -327 257 -538 308 -85 21 -109 22 -932 24 -465 1 -878 -2 -919 -7z
m1754 -434 c181 -38 349 -168 433 -335 75 -150 72 -82 72 -1432 l0 -1208
-1182 0 c-1268 0 -1260 0 -1359 50 -54 28 -142 111 -173 164 -58 100 -56 56
-56 1185 0 1151 -3 1098 68 1241 54 110 168 223 282 279 145 71 120 69 1030
70 679 1 827 -2 885 -14z m1552 -869 c101 -33 214 -106 283 -184 58 -65 133
-209 149 -290 6 -29 11 -120 11 -202 l0 -150 -530 0 -530 0 0 431 0 431 268
-4 c257 -5 270 -6 349 -32z m443 -1494 c0 -268 -6 -313 -56 -398 -31 -53 -119
-136 -173 -164 -85 -43 -154 -50 -503 -50 l-328 0 0 430 0 430 530 0 530 0 0
-248z m-2990 -1087 c20 -96 -11 -194 -85 -274 -64 -69 -128 -95 -230 -96 -68
0 -89 4 -137 28 -62 31 -116 84 -149 149 -26 50 -37 177 -20 221 l11 27 299 0
300 0 11 -55z m2341 28 c17 -44 6 -171 -20 -221 -33 -65 -87 -118 -149 -149
-76 -38 -191 -40 -267 -5 -134 61 -213 211 -185 347 l11 55 300 0 299 0 11
-27z"/>
</g>
</svg>
