<?xml version="1.0" standalone="no"?>
<!DOCTYPE svg PUBLIC "-//W3C//DTD SVG 20010904//EN"
 "http://www.w3.org/TR/2001/REC-SVG-20010904/DTD/svg10.dtd">
<svg version="1.0" xmlns="http://www.w3.org/2000/svg"
 width="512.000000pt" height="512.000000pt" viewBox="0 0 512.000000 512.000000"
 preserveAspectRatio="xMidYMid meet">

<g transform="translate(0.000000,512.000000) scale(0.100000,-0.100000)"
fill="#000000" stroke="none">
<path d="M2254 4142 l-300 -937 -980 -5 -979 -5 70 -52 c39 -28 394 -288 790
-577 531 -388 719 -531 717 -544 -2 -9 -138 -433 -303 -941 -164 -509 -298
-926 -296 -927 1 -2 357 258 790 577 434 318 793 579 797 579 5 0 364 -261
797 -579 433 -319 789 -578 790 -577 2 1 -132 418 -296 927 -165 508 -301 932
-303 941 -2 12 199 164 732 553 404 296 760 556 790 579 l55 41 -979 5 -980 5
-300 937 c-166 516 -303 938 -306 938 -3 0 -140 -422 -306 -938z"/>
</g>
</svg>
