<?xml version="1.0"?>
<svg width="100" height="100" xmlns="http://www.w3.org/2000/svg" xmlns:svg="http://www.w3.org/2000/svg">

 <g class="layer">
  <title>Layer 1</title>
  <g id="Layer_8_copy_4_3_">
   <path d="m28.213,27.267l0,8.294c0,0.571 0.305,1.1 0.8,1.385l20.212,11.669c1.066,0.616 1.066,2.155 0,2.771l-20.212,11.669c-0.495,0.286 -0.8,0.814 -0.8,1.385l0,8.294c0,1.231 1.333,2.001 2.399,1.385l39.375,-22.733c1.066,-0.616 1.066,-2.155 0,-2.771l-39.375,-22.734c-1.066,-0.615 -2.399,0.154 -2.399,1.386z" id="svg_1"/>
   <path d="m69.987,48.615l-39.375,-22.734c-0.193,-0.112 -0.395,-0.164 -0.597,-0.19l37.972,21.923c1.066,0.616 1.066,2.155 0,2.771l-39.375,22.734c-0.1,0.058 -0.205,0.092 -0.308,0.126c0.308,0.914 1.401,1.398 2.308,0.874l39.375,-22.733c1.067,-0.616 1.067,-2.156 0,-2.771z" id="svg_2"/>
   <path d="m28.213,27.267l0,8.294c0,0.571 0.305,1.1 0.8,1.385l20.212,11.669c1.066,0.616 1.066,2.155 0,2.771l-20.212,11.669c-0.495,0.286 -0.8,0.814 -0.8,1.385l0,8.294c0,1.231 1.333,2.001 2.399,1.385l39.375,-22.733c1.066,-0.616 1.066,-2.155 0,-2.771l-39.375,-22.734c-1.066,-0.615 -2.399,0.154 -2.399,1.386z" fill="#ffffff" id="svg_3" opacity="0.85" stroke-miterlimit="10"/>
  </g>
  <g id="svg_8"/>
  <polygon cx="50" cy="42.5" edge="0" fill="#FF0000" id="svg_11" opacity="0.85" orient="x" shape="regularPoly" sides="5" strokeWidth="5" strokecolor="none"/>
  <polygon cx="-401" cy="15.5" edge="0" fill="#ffffff" id="svg_12" opacity="0.85" orient="x" shape="regularPoly" sides="5" strokeWidth="5" strokecolor="none"/>
 </g>
</svg>